<?xml version="1.0" encoding="UTF-8"?><svg id="Layer_1_Image" xmlns="http://www.w3.org/2000/svg" viewBox="0 0 214.07 211.68"><defs><style>.cls-1{fill:#3c7abe;}.cls-1,.cls-2{stroke-width:0px;}.cls-2{fill:#ef422e;}</style></defs><path class="cls-2" d="m110.03,88.75c-.64,3.53-1.3,7.05-1.93,10.58-2.37,13.39-4.73,26.78-7.09,40.17-2.05,11.62-4.08,23.25-6.12,34.87-2.06,11.74-4.14,23.48-6.2,35.22-.17.95-.72,1.56-1.45,2.08H1.45c-1.34-.76-1.62-1.91-1.36-3.36,2.79-15.82,5.56-31.64,8.35-47.46,2.95-16.76,5.79-33.54,8.89-50.28,2.08-11.26,7.3-21.08,14.67-29.81,4.17-4.94,9.17-8.99,14.06-13.15,22.3-18.98,44.59-37.96,66.89-56.93,3.95-3.36,7.91-6.71,11.86-10.07.24-.2.44-.46.78-.53.45.56.17,1.16.07,1.72-1.48,8.33-2.93,16.67-4.4,25-2.12,11.95-4.17,23.91-6.33,35.85-1.4,7.74-2.7,15.49-4.15,23.22-.18.97-.06,2.02-.73,2.86Z"/><path class="cls-1" d="m110.03,88.75c.32-3.09.99-6.13,1.53-9.19,2.1-12.01,4.24-24.01,6.36-36.02,2.2-12.48,4.4-24.96,6.6-37.44.35-2,.7-4,1.05-6.01,1.04-.03,2.07-.07,3.11-.07,7.67,0,15.33.01,23-.02.94,0,1.28.04,1.07,1.2-2.84,15.77-5.61,31.54-8.39,47.32-2.27,12.87-4.54,25.74-6.77,38.62-.21,1.22-.58,1.66-1.92,1.65-8.54-.08-17.09-.04-25.64-.04Z"/><path class="cls-1" d="m154.22,88.75c-3.07,0-6.15-.02-9.22.02-.83.01-.99-.21-.85-1.03,3.04-17.07,6.04-34.14,9.05-51.2,2.08-11.77,4.16-23.54,6.21-35.32.16-.9.44-1.22,1.41-1.22,6.11.05,12.22.04,18.33,0,.88,0,1.03.19.87,1.05-1.5,8.35-2.95,16.72-4.43,25.07-1.8,10.2-3.62,20.4-5.43,30.6-1.83,10.36-3.67,20.71-5.47,31.08-.14.79-.43.96-1.15.95-3.11-.03-6.23-.01-9.34-.01Z"/><path class="cls-1" d="m195.03,88.92c-.76,0-1.52-.03-2.28,0-.66.03-.83-.2-.72-.84.75-4.12,1.48-8.23,2.21-12.35,1.89-10.67,3.77-21.35,5.66-32.02,1.63-9.22,3.26-18.44,4.89-27.66.85-4.83,1.72-9.65,2.53-14.48.18-1.09.5-1.69,1.77-1.54,1.1.14,2.23,0,3.35.04,1.3.04,1.8.64,1.58,1.91-1.13,6.52-2.28,13.03-3.42,19.54-2.05,11.7-4.11,23.39-6.16,35.09-1.78,10.13-3.54,20.25-5.32,30.38-.29,1.65-.63,1.92-2.29,1.93-.6,0-1.2,0-1.8,0Z"/></svg>